<?xml version="1.0" encoding="UTF-8"?>
<svg width="220px" height="220px" viewBox="0 0 220 220" version="1.1" xmlns="http://www.w3.org/2000/svg" xmlns:xlink="http://www.w3.org/1999/xlink">
    <!-- Generator: Sketch 61 (89581) - https://sketch.com -->
    <title>提交成功@2x</title>
    <desc>Created with Sketch.</desc>
    <defs>
        <radialGradient cx="50%" cy="53.1376138%" fx="50%" fy="53.1376138%" r="79.4302246%" gradientTransform="translate(0.500000,0.531376),scale(1.000000,0.989529),scale(1.000000,1.009335),translate(-0.500000,-0.531376)" id="radialGradient-1">
            <stop stop-color="#FFDFAE" offset="0%"></stop>
            <stop stop-color="#FFE389" offset="100%"></stop>
        </radialGradient>
        <filter x="-50.6%" y="-50.1%" width="201.2%" height="200.2%" filterUnits="objectBoundingBox" id="filter-2">
            <feGaussianBlur stdDeviation="24" in="SourceGraphic"></feGaussianBlur>
        </filter>
        <path d="M24.6814166,44.4020619 C22.2022007,44.4020619 20.3195876,42.6439919 20.3195876,40.2998986 C20.3195876,38.3191398 22.4514481,37.1705341 24.4136082,36.7485973 C24.9174061,34.6271928 26.2193259,32.646434 28.6985417,32.646434 C29.4277229,32.646434 30.156904,32.7870796 30.819796,33.0449299 C32.052775,31.2165371 34.266834,30.1030928 36.7062764,30.1030928 C40.5112761,30.1030928 42.8039618,34.0785512 42.8039618,36.1530053 C42.8039618,36.3288123 43.6003525,36.5727903 43.5870947,36.7485973 C45.0056835,37.4752662 45.9072165,38.8348403 45.9072165,40.2998986 C45.9072165,42.5619486 43.8257358,44.4020619 41.2802308,44.4020619 L24.6814166,44.4020619 Z" id="path-3"></path>
        <filter x="-8.2%" y="-14.7%" width="116.4%" height="129.4%" filterUnits="objectBoundingBox" id="filter-4">
            <feGaussianBlur stdDeviation="0.7" in="SourceGraphic"></feGaussianBlur>
        </filter>
        <filter x="-18.0%" y="-32.2%" width="136.0%" height="164.3%" filterUnits="objectBoundingBox" id="filter-5">
            <feGaussianBlur stdDeviation="2" in="SourceAlpha" result="shadowBlurInner1"></feGaussianBlur>
            <feOffset dx="0" dy="-1" in="shadowBlurInner1" result="shadowOffsetInner1"></feOffset>
            <feComposite in="shadowOffsetInner1" in2="SourceAlpha" operator="arithmetic" k2="-1" k3="1" result="shadowInnerInner1"></feComposite>
            <feColorMatrix values="0 0 0 0 1   0 0 0 0 0.896903844   0 0 0 0 0.792751736  0 0 0 1 0" type="matrix" in="shadowInnerInner1"></feColorMatrix>
        </filter>
        <path d="M125.725441,57.7171863 C125.00499,54.62394 123.241366,51.9278351 119.573612,51.9278351 C115.447057,51.9278351 114.792433,55.5577502 113.548016,57.7171863 C111.400225,56.802484 107.618557,58.9897749 107.618557,61.7328424 C107.618557,64.7093625 110.20774,66.2268041 113.548016,66.2268041 L126.581642,66.2268041 C129.332458,66.2268041 131.701031,64.2424574 131.701031,61.7328424 C131.701031,59.3983169 128.539698,56.3996257 125.725441,57.7171863 Z" id="path-6"></path>
        <filter x="-8.7%" y="-14.7%" width="117.4%" height="129.4%" filterUnits="objectBoundingBox" id="filter-7">
            <feGaussianBlur stdDeviation="0.7" in="SourceGraphic"></feGaussianBlur>
        </filter>
        <filter x="-19.1%" y="-32.2%" width="138.2%" height="164.3%" filterUnits="objectBoundingBox" id="filter-8">
            <feGaussianBlur stdDeviation="2" in="SourceAlpha" result="shadowBlurInner1"></feGaussianBlur>
            <feOffset dx="0" dy="-1" in="shadowBlurInner1" result="shadowOffsetInner1"></feOffset>
            <feComposite in="shadowOffsetInner1" in2="SourceAlpha" operator="arithmetic" k2="-1" k3="1" result="shadowInnerInner1"></feComposite>
            <feColorMatrix values="0 0 0 0 1   0 0 0 0 0.896903844   0 0 0 0 0.792751736  0 0 0 1 0" type="matrix" in="shadowInnerInner1"></feColorMatrix>
        </filter>
        <linearGradient x1="50%" y1="-14.241728%" x2="50%" y2="126.883588%" id="linearGradient-9">
            <stop stop-color="#FFF4E7" stop-opacity="0" offset="0%"></stop>
            <stop stop-color="#E7A25D" offset="100%"></stop>
        </linearGradient>
        <linearGradient x1="67.1415399%" y1="44.6384305%" x2="52.7243737%" y2="56.6982784%" id="linearGradient-10">
            <stop stop-color="#FFB400" stop-opacity="0" offset="0%"></stop>
            <stop stop-color="#D04800" stop-opacity="0.423541302" offset="100%"></stop>
        </linearGradient>
        <linearGradient x1="-31.5219133%" y1="44.7044826%" x2="98.712135%" y2="44.7044826%" id="linearGradient-11">
            <stop stop-color="#E8DFDB" offset="0%"></stop>
            <stop stop-color="#CCB9B5" offset="100%"></stop>
        </linearGradient>
        <linearGradient x1="100%" y1="0%" x2="100%" y2="121.05008%" id="linearGradient-12">
            <stop stop-color="#E8E2DB" stop-opacity="0.457331731" offset="0%"></stop>
            <stop stop-color="#CCC3B5" offset="100%"></stop>
        </linearGradient>
        <filter x="-295.1%" y="-26.0%" width="690.2%" height="152.0%" filterUnits="objectBoundingBox" id="filter-13">
            <feGaussianBlur stdDeviation="1" in="SourceGraphic"></feGaussianBlur>
        </filter>
        <linearGradient x1="-31.5219133%" y1="44.7044826%" x2="98.712135%" y2="44.7044826%" id="linearGradient-14">
            <stop stop-color="#E8DFDB" offset="0%"></stop>
            <stop stop-color="#CCB9B5" offset="100%"></stop>
        </linearGradient>
        <linearGradient x1="100%" y1="0%" x2="100%" y2="121.05008%" id="linearGradient-15">
            <stop stop-color="#E8E2DB" stop-opacity="0.457331731" offset="0%"></stop>
            <stop stop-color="#CCC3B5" offset="100%"></stop>
        </linearGradient>
        <filter x="-204.7%" y="-16.4%" width="509.4%" height="132.7%" filterUnits="objectBoundingBox" id="filter-16">
            <feGaussianBlur stdDeviation="1" in="SourceGraphic"></feGaussianBlur>
        </filter>
        <linearGradient x1="50%" y1="-10.7275957%" x2="50%" y2="125.383032%" id="linearGradient-17">
            <stop stop-color="#FFB400" offset="0%"></stop>
            <stop stop-color="#FD5902" offset="100%"></stop>
        </linearGradient>
        <path d="M43.6391753,0.0900041265 L90.5813535,0.0900041265 C92.2382077,0.0900041265 93.5813535,1.43314988 93.5813535,3.09000413 L93.5813535,69.941397 C93.5813535,71.5982512 92.2382077,72.941397 90.5813535,72.941397 C90.4788672,72.941397 90.3764483,72.9361452 90.2744996,72.9256625 L43.3323213,68.0988828 C41.8023431,67.9415644 40.6391753,66.6526623 40.6391753,65.1146173 L40.6391753,3.09000413 C40.6391753,1.43314988 41.982321,0.0900041265 43.6391753,0.0900041265 Z" id="path-18"></path>
        <filter x="-9.4%" y="-6.9%" width="126.4%" height="119.1%" filterUnits="objectBoundingBox" id="filter-19">
            <feOffset dx="2" dy="2" in="SourceAlpha" result="shadowOffsetOuter1"></feOffset>
            <feGaussianBlur stdDeviation="2" in="shadowOffsetOuter1" result="shadowBlurOuter1"></feGaussianBlur>
            <feColorMatrix values="0 0 0 0 0.937754755   0 0 0 0 0.482733469   0 0 0 0 0  0 0 0 1 0" type="matrix" in="shadowBlurOuter1"></feColorMatrix>
        </filter>
        <linearGradient x1="56.0847783%" y1="57.304663%" x2="50%" y2="45.6830512%" id="linearGradient-20">
            <stop stop-color="#CC7921" offset="0%"></stop>
            <stop stop-color="#FFD8B2" offset="100%"></stop>
        </linearGradient>
        <path d="M42.4502285,15.2461021 C61.3184294,13.4555521 75.5154323,12.3956939 85.0412371,12.0665277 C86.0978273,11.9665958 86.8504046,11.9665958 87.2989691,12.0665277 C87.4836374,12.1076685 87.8506601,12.2559781 88.4000372,12.5114567 C89.105508,12.8395225 89.556701,13.5469359 89.556701,14.3249566 L89.556701,24.3378675 C89.556701,25.442437 88.6612705,26.3378675 87.556701,26.3378675 C87.5208005,26.3378675 87.4849065,26.3369009 87.4490581,26.3349686 L42.5315313,23.9139321 C41.4703289,23.8567338 40.6391742,22.9795737 40.6391742,21.916831 L40.6391742,19.6153855 L40.6391742,19.6153855 L40.6391742,17.2371473 C40.6391839,16.2057777 41.4234718,15.343539 42.4502285,15.2461021 Z" id="path-21"></path>
        <filter x="-8.2%" y="-27.8%" width="120.4%" height="169.4%" filterUnits="objectBoundingBox" id="filter-22">
            <feOffset dx="1" dy="1" in="SourceAlpha" result="shadowOffsetOuter1"></feOffset>
            <feGaussianBlur stdDeviation="1.5" in="shadowOffsetOuter1" result="shadowBlurOuter1"></feGaussianBlur>
            <feColorMatrix values="0 0 0 0 0.807687953   0 0 0 0 0.415778224   0 0 0 0 0  0 0 0 0.441242351 0" type="matrix" in="shadowBlurOuter1"></feColorMatrix>
        </filter>
        <linearGradient x1="50%" y1="113.340538%" x2="50%" y2="0%" id="linearGradient-23">
            <stop stop-color="#FFF2DE" offset="0%"></stop>
            <stop stop-color="#FFFFFF" offset="100%"></stop>
        </linearGradient>
        <linearGradient x1="50%" y1="0%" x2="50%" y2="100%" id="linearGradient-24">
            <stop stop-color="#FFEDA1" offset="0%"></stop>
            <stop stop-color="#FED667" offset="100%"></stop>
        </linearGradient>
        <linearGradient x1="50%" y1="0%" x2="50%" y2="100%" id="linearGradient-25">
            <stop stop-color="#FFEDA1" offset="0%"></stop>
            <stop stop-color="#FED667" offset="100%"></stop>
        </linearGradient>
        <linearGradient x1="50%" y1="0%" x2="50%" y2="100%" id="linearGradient-26">
            <stop stop-color="#FFEDA1" offset="0%"></stop>
            <stop stop-color="#FED667" offset="100%"></stop>
        </linearGradient>
        <linearGradient x1="64.5733899%" y1="87.7937148%" x2="42.710836%" y2="41.9339321%" id="linearGradient-27">
            <stop stop-color="#AF6415" offset="0%"></stop>
            <stop stop-color="#E77E23" offset="100%"></stop>
        </linearGradient>
        <path d="M79.0354219,32.3608247 C79.532924,31.9738962 80.8099077,34.2457095 81.3159697,33.9119953 C80.2002084,36.7743676 80.5257732,41.436095 80.5257732,44.6557934 C76.1089447,45.6640751 67.3865732,57.283229 64.4420316,62.8221957 C60.2724868,57.5331966 55.4017713,54.1163358 51.9278351,52.2469786 C53.4469962,49.3222432 54.6535793,47.2402086 55.5475843,46.0008748 C55.8242551,45.6173339 56.3736858,45.6173339 57.1958763,46.0008748 L63.5927835,52.2469786 C63.4968043,50.5006529 65.0019584,53.8193453 65.0979376,53.5964116 C66.1157269,51.2323623 71.3529722,38.3357913 79.0354219,32.3608247 Z" id="path-28"></path>
        <filter x="-18.7%" y="-18.0%" width="144.2%" height="142.6%" filterUnits="objectBoundingBox" id="filter-29">
            <feOffset dx="1" dy="1" in="SourceAlpha" result="shadowOffsetOuter1"></feOffset>
            <feGaussianBlur stdDeviation="2" in="shadowOffsetOuter1" result="shadowBlurOuter1"></feGaussianBlur>
            <feColorMatrix values="0 0 0 0 0.779211957   0 0 0 0 0.40111947   0 0 0 0 0  0 0 0 0.571787587 0" type="matrix" in="shadowBlurOuter1"></feColorMatrix>
        </filter>
        <linearGradient x1="0%" y1="37.798106%" x2="86.7301132%" y2="65.2926121%" id="linearGradient-30">
            <stop stop-color="#FFF7C9" offset="0%"></stop>
            <stop stop-color="#FFE258" offset="20.02481%"></stop>
            <stop stop-color="#FFB400" offset="100%"></stop>
        </linearGradient>
        <filter x="-33.9%" y="-132.9%" width="167.9%" height="365.9%" filterUnits="objectBoundingBox" id="filter-31">
            <feGaussianBlur stdDeviation="2" in="SourceGraphic"></feGaussianBlur>
        </filter>
        <radialGradient cx="50%" cy="50%" fx="50%" fy="50%" r="106.88826%" gradientTransform="translate(0.500000,0.500000),scale(0.869863,1.000000),rotate(-1.517427),scale(1.000000,0.801691),translate(-0.500000,-0.500000)" id="radialGradient-32">
            <stop stop-color="#FFFFFF" offset="0%"></stop>
            <stop stop-color="#D2D2D2" offset="100%"></stop>
        </radialGradient>
        <radialGradient cx="50%" cy="50%" fx="50%" fy="50%" r="113.189494%" gradientTransform="translate(0.500000,0.500000),scale(1.000000,0.765101),rotate(-1.409403),scale(1.000000,0.801691),translate(-0.500000,-0.500000)" id="radialGradient-33">
            <stop stop-color="#FFFFFF" offset="0%"></stop>
            <stop stop-color="#D2D2D2" offset="100%"></stop>
        </radialGradient>
        <linearGradient x1="26.0416322%" y1="95.4570038%" x2="42.6220708%" y2="-18.8756726%" id="linearGradient-34">
            <stop stop-color="#301911" offset="0%"></stop>
            <stop stop-color="#AF6F27" offset="100%"></stop>
        </linearGradient>
        <radialGradient cx="50%" cy="50%" fx="50%" fy="50%" r="113.18747%" gradientTransform="translate(0.500000,0.500000),scale(1.000000,0.788779),rotate(-1.367110),scale(1.000000,0.801691),translate(-0.500000,-0.500000)" id="radialGradient-35">
            <stop stop-color="#FFFFFF" offset="0%"></stop>
            <stop stop-color="#D8D8D8" offset="100%"></stop>
        </radialGradient>
        <radialGradient cx="48.0083119%" cy="36.8203806%" fx="48.0083119%" fy="36.8203806%" r="112.928877%" gradientTransform="translate(0.480083,0.368204),scale(1.000000,0.830189),rotate(90.000000),scale(1.000000,0.742045),translate(-0.480083,-0.368204)" id="radialGradient-36">
            <stop stop-color="#FFFFFF" offset="0%"></stop>
            <stop stop-color="#CECECE" offset="100%"></stop>
        </radialGradient>
        <radialGradient cx="50%" cy="50%" fx="50%" fy="50%" r="129.162145%" gradientTransform="translate(0.500000,0.500000),scale(0.876190,1.000000),rotate(-0.944932),scale(1.000000,0.801691),translate(-0.500000,-0.500000)" id="radialGradient-37">
            <stop stop-color="#FFFFFF" offset="0%"></stop>
            <stop stop-color="#D2D2D2" offset="100%"></stop>
        </radialGradient>
        <path d="M19.6089828,34.0835188 C26.5086491,34.0835188 35.8348995,31.9911839 38.2994882,26.4447994 C39.9635202,22.7000116 37.3443666,20.0814726 36.6516484,16.9912792 C35.5689249,12.1612851 36.1309803,7.45843431 32.6896462,4.31015468 C29.4613383,1.35676045 26.6991753,0.0491162503 19.6089828,0.0491162503 C11.9285066,0.0491162503 8.4579428,1.34752461 5.15725812,5.09294658 C2.50353378,8.10423618 1.99577472,12.7369789 1.99577472,16.9912792 C1.99577472,19.6309881 -1.02995988,22.8385023 0.369672503,26.4447994 C2.70724362,32.4677924 12.41933,34.0835188 19.6089828,34.0835188 Z" id="path-38"></path>
        <filter x="-5.1%" y="-5.9%" width="110.3%" height="111.8%" filterUnits="objectBoundingBox" id="filter-40">
            <feGaussianBlur stdDeviation="1.5" in="SourceAlpha" result="shadowBlurInner1"></feGaussianBlur>
            <feOffset dx="0" dy="1" in="shadowBlurInner1" result="shadowOffsetInner1"></feOffset>
            <feComposite in="shadowOffsetInner1" in2="SourceAlpha" operator="arithmetic" k2="-1" k3="1" result="shadowInnerInner1"></feComposite>
            <feColorMatrix values="0 0 0 0 1   0 0 0 0 1   0 0 0 0 1  0 0 0 0.5 0" type="matrix" in="shadowInnerInner1"></feColorMatrix>
        </filter>
        <radialGradient cx="71.6876954%" cy="58.5051694%" fx="71.6876954%" fy="58.5051694%" r="55.4687148%" gradientTransform="translate(0.716877,0.585052),scale(1.000000,0.802932),rotate(180.000000),scale(1.000000,1.216249),translate(-0.716877,-0.585052)" id="radialGradient-41">
            <stop stop-color="#595959" offset="0%"></stop>
            <stop stop-color="#000000" offset="100%"></stop>
        </radialGradient>
        <radialGradient cx="48.0083119%" cy="32.5781468%" fx="48.0083119%" fy="32.5781468%" r="63.4286141%" gradientTransform="translate(0.480083,0.325781),scale(0.341506,1.000000),rotate(90.000000),scale(1.000000,3.175700),translate(-0.480083,-0.325781)" id="radialGradient-42">
            <stop stop-color="#FFFDF8" offset="0%"></stop>
            <stop stop-color="#CECECE" offset="100%"></stop>
        </radialGradient>
        <ellipse id="path-43" cx="19.9397206" cy="30.6679562" rx="21.123526" ry="7.21381359"></ellipse>
        <filter x="-7.1%" y="-20.8%" width="114.2%" height="141.6%" filterUnits="objectBoundingBox" id="filter-44">
            <feGaussianBlur stdDeviation="2.5" in="SourceAlpha" result="shadowBlurInner1"></feGaussianBlur>
            <feOffset dx="0" dy="1" in="shadowBlurInner1" result="shadowOffsetInner1"></feOffset>
            <feComposite in="shadowOffsetInner1" in2="SourceAlpha" operator="arithmetic" k2="-1" k3="1" result="shadowInnerInner1"></feComposite>
            <feColorMatrix values="0 0 0 0 1   0 0 0 0 1   0 0 0 0 1  0 0 0 0.5 0" type="matrix" in="shadowInnerInner1"></feColorMatrix>
        </filter>
        <linearGradient x1="33.4582717%" y1="50%" x2="100%" y2="50%" id="linearGradient-45">
            <stop stop-color="#F53939" offset="0%"></stop>
            <stop stop-color="#F88760" offset="100%"></stop>
        </linearGradient>
        <linearGradient x1="0%" y1="50%" x2="68.2456001%" y2="50%" id="linearGradient-46">
            <stop stop-color="#F88760" offset="0%"></stop>
            <stop stop-color="#F53939" offset="100%"></stop>
        </linearGradient>
        <radialGradient cx="50%" cy="50%" fx="50%" fy="50%" r="141.376168%" gradientTransform="translate(0.500000,0.500000),scale(0.800475,1.000000),rotate(-0.863289),scale(1.000000,0.801691),translate(-0.500000,-0.500000)" id="radialGradient-47">
            <stop stop-color="#FFFFFF" offset="0%"></stop>
            <stop stop-color="#D2D2D2" offset="100%"></stop>
        </radialGradient>
        <linearGradient x1="35.6942804%" y1="100%" x2="45.5945836%" y2="-25.7591426%" id="linearGradient-48">
            <stop stop-color="#301911" offset="0%"></stop>
            <stop stop-color="#AF6F27" offset="100%"></stop>
        </linearGradient>
        <linearGradient x1="30.1629251%" y1="39.4192142%" x2="72.769229%" y2="62.0285647%" id="linearGradient-49">
            <stop stop-color="#AF6F27" offset="0%"></stop>
            <stop stop-color="#301911" offset="100%"></stop>
        </linearGradient>
        <linearGradient x1="72.769229%" y1="62.0285647%" x2="30.1629251%" y2="39.4192142%" id="linearGradient-50">
            <stop stop-color="#301911" offset="0%"></stop>
            <stop stop-color="#AF6F27" offset="100%"></stop>
        </linearGradient>
        <radialGradient cx="50%" cy="50%" fx="50%" fy="50%" r="57.0942983%" gradientTransform="translate(0.500000,0.500000),rotate(9.344040),scale(1.000000,1.070890),translate(-0.500000,-0.500000)" id="radialGradient-51">
            <stop stop-color="#2F140B" offset="0%"></stop>
            <stop stop-color="#866236" offset="100%"></stop>
        </radialGradient>
        <linearGradient x1="42.1028865%" y1="-10.0091957%" x2="42.1028865%" y2="116.077792%" id="linearGradient-52">
            <stop stop-color="#5E3627" offset="0%"></stop>
            <stop stop-color="#301911" offset="100%"></stop>
        </linearGradient>
        <path d="M34.4266967,19.8746217 L34.6632992,19.6306556 C34.7639257,19.5448412 34.8572149,19.4923486 34.9431668,19.4731778 C35.0291187,19.4540071 35.1207991,19.4540071 35.2182079,19.4731778 C34.9478802,19.676113 34.7629106,19.8316273 34.6632992,19.9397206 L34.6329153,19.9747157 C34.8295257,20.0730763 35.0273193,20.1803744 35.2262959,20.2966101 L35.5540212,19.9530463 C35.6685847,19.8540296 35.7747947,19.7934613 35.8726511,19.7713412 C35.9705075,19.749221 36.1222989,19.749221 36.3280254,19.7713412 C36.0244425,19.8924779 35.7664411,20.0719175 35.5540212,20.3096598 C35.5162577,20.3519251 35.481391,20.3925225 35.4494212,20.4314521 C35.6180326,20.5340963 35.786797,20.6436888 35.9563965,20.7595911 L36.4487335,20.2489976 C36.5645407,20.149981 36.6719036,20.0894126 36.7708223,20.0672925 C36.869741,20.0451724 37.0180933,20.0451724 37.2158794,20.0672925 C36.9191746,20.2454049 36.6848798,20.4070733 36.512995,20.5522977 C36.395456,20.6516055 36.2911939,20.7778088 36.2002087,20.9309076 C36.3414815,21.0312537 36.4824456,21.1360198 36.6239767,21.2450693 C36.4953775,21.4798837 36.3215243,21.6609771 36.1024171,21.7883495 C35.8833098,21.9157219 35.6352398,21.9933486 35.358207,22.0212294 C33.710211,20.3734374 32.1739756,19.676638 30.7495009,19.9308314 C29.3250262,20.1850249 28.1937482,21.2435243 27.3556668,23.1063297 C27.1274633,23.2395546 26.9201654,23.306167 26.7337732,23.306167 C26.547381,23.306167 26.3666874,23.2395546 26.1916924,23.1063297 C27.3946225,20.7589984 28.913892,19.4611599 30.7495009,19.2128143 C31.9249778,19.0537802 33.1507097,19.2743827 34.4266967,19.8746217 Z" id="path-53"></path>
        <filter x="-18.1%" y="-24.1%" width="136.3%" height="196.5%" filterUnits="objectBoundingBox" id="filter-54">
            <feOffset dx="0" dy="1" in="SourceAlpha" result="shadowOffsetOuter1"></feOffset>
            <feGaussianBlur stdDeviation="0.5" in="shadowOffsetOuter1" result="shadowBlurOuter1"></feGaussianBlur>
            <feColorMatrix values="0 0 0 0 0.47693048   0 0 0 0 0.47693048   0 0 0 0 0.47693048  0 0 0 0.5 0" type="matrix" in="shadowBlurOuter1"></feColorMatrix>
        </filter>
        <linearGradient x1="50%" y1="100%" x2="50%" y2="21.5715603%" id="linearGradient-55">
            <stop stop-color="#FB6363" offset="0%"></stop>
            <stop stop-color="#FF4444" offset="48.1794449%"></stop>
            <stop stop-color="#CB1B1B" offset="100%"></stop>
        </linearGradient>
        <filter x="-58.8%" y="-84.5%" width="220.4%" height="274.5%" filterUnits="objectBoundingBox" id="filter-56">
            <feOffset dx="0" dy="1" in="SourceAlpha" result="shadowOffsetOuter1"></feOffset>
            <feGaussianBlur stdDeviation="0.5" in="shadowOffsetOuter1" result="shadowBlurOuter1"></feGaussianBlur>
            <feColorMatrix values="0 0 0 0 0.864923007   0 0 0 0 0.864923007   0 0 0 0 0.864923007  0 0 0 1 0" type="matrix" in="shadowBlurOuter1" result="shadowMatrixOuter1"></feColorMatrix>
            <feMerge>
                <feMergeNode in="shadowMatrixOuter1"></feMergeNode>
                <feMergeNode in="SourceGraphic"></feMergeNode>
            </feMerge>
        </filter>
        <path d="M6.80460025,0.221963495 L4.0974303,1.29983339 C4.06284169,1.33877021 4.06992975,1.37598724 4.06992975,1.37598724 C4.07682549,1.47705098 4.23842216,1.47035998 4.23842216,1.47035998 C4.40826074,1.46482445 5.04080097,1.52055595 5.04080097,1.52055595 C5.27608043,1.54543897 5.18091368,1.87792013 5.18091368,1.87792013 L4.2571588,4.73522123 L5.98364964,4.73522123 C5.98867721,2.49771144 6.11546548,2.06556386 6.11546548,2.06556386 C6.16214225,1.63822628 6.80688052,0.259476119 6.80688052,0.259476119 L6.80460025,0.221963495 Z" id="path-57"></path>
        <filter x="-73.1%" y="-44.3%" width="246.1%" height="188.6%" filterUnits="objectBoundingBox" id="filter-58">
            <feGaussianBlur stdDeviation="1.5" in="SourceAlpha" result="shadowBlurInner1"></feGaussianBlur>
            <feOffset dx="0" dy="1" in="shadowBlurInner1" result="shadowOffsetInner1"></feOffset>
            <feComposite in="shadowOffsetInner1" in2="SourceAlpha" operator="arithmetic" k2="-1" k3="1" result="shadowInnerInner1"></feComposite>
            <feColorMatrix values="0 0 0 0 1   0 0 0 0 1   0 0 0 0 1  0 0 0 0.5 0" type="matrix" in="shadowInnerInner1"></feColorMatrix>
        </filter>
        <path d="M2.40072427,0.0359228956 C1.50061465,-0.130014978 0.205055566,0.268847369 0.0273910657,1.44305095 C-0.150301104,2.61722723 0.594694484,3.03658955 0.594694484,3.03658955 C0.897258152,3.24661192 1.29685801,3.18148151 1.29685801,3.18148151 L1.96390922,2.24123969 C1.96390922,2.24123969 1.92807749,2.23837351 1.64737256,2.21099472 C1.36666763,2.18361593 1.30455008,1.84434272 1.30455008,1.84434272 C1.27084888,1.69336355 1.34713311,1.10446016 1.93737437,1.11281302 C2.52761563,1.12122046 2.37302732,1.84467028 2.37302732,1.84467028 C2.25313629,2.93138729 0.311277964,4.73522123 0.311277964,4.73522123 L2.07522276,4.73522123 C2.45509442,4.26666989 3.65491777,2.65918257 3.69835856,1.42473473 C3.74179934,0.190259585 2.40072427,0.0359228956 2.40072427,0.0359228956 Z" id="path-59"></path>
        <filter x="-54.1%" y="-42.2%" width="208.1%" height="184.5%" filterUnits="objectBoundingBox" id="filter-61">
            <feGaussianBlur stdDeviation="1.5" in="SourceAlpha" result="shadowBlurInner1"></feGaussianBlur>
            <feOffset dx="0" dy="1" in="shadowBlurInner1" result="shadowOffsetInner1"></feOffset>
            <feComposite in="shadowOffsetInner1" in2="SourceAlpha" operator="arithmetic" k2="-1" k3="1" result="shadowInnerInner1"></feComposite>
            <feColorMatrix values="0 0 0 0 1   0 0 0 0 1   0 0 0 0 1  0 0 0 0.5 0" type="matrix" in="shadowInnerInner1"></feColorMatrix>
        </filter>
        <filter x="-2958.9%" y="-98.9%" width="6017.8%" height="297.8%" filterUnits="objectBoundingBox" id="filter-62">
            <feGaussianBlur stdDeviation="1" in="SourceGraphic"></feGaussianBlur>
        </filter>
        <linearGradient x1="108.574641%" y1="50%" x2="0%" y2="50%" id="linearGradient-63">
            <stop stop-color="#D2D2D2" stop-opacity="0.215280813" offset="0%"></stop>
            <stop stop-color="#B7B7B7" offset="48.8800195%"></stop>
            <stop stop-color="#D8D8D8" stop-opacity="0.20388986" offset="100%"></stop>
        </linearGradient>
        <filter x="-66.2%" y="-350.7%" width="232.5%" height="814.6%" filterUnits="objectBoundingBox" id="filter-64">
            <feGaussianBlur stdDeviation="1" in="SourceGraphic"></feGaussianBlur>
        </filter>
        <linearGradient x1="107.934679%" y1="43.1959685%" x2="-13.6180123%" y2="43.1927711%" id="linearGradient-65">
            <stop stop-color="#E95100" offset="0%"></stop>
            <stop stop-color="#FD5E02" offset="27.4702006%"></stop>
            <stop stop-color="#FF8404" offset="50.2561642%"></stop>
            <stop stop-color="#FD6002" offset="75.7684291%"></stop>
            <stop stop-color="#E24E00" offset="100%"></stop>
        </linearGradient>
        <path d="M17.4269916,37.8633552 C16.8085215,38.507593 16.4992865,38.9181956 16.4992865,39.095163 C16.7299251,39.3700454 17.118272,39.8844627 17.7957687,40.2321181 C17.6011247,40.8197995 17.478199,41.2260281 17.4269916,41.4508041 C17.2530656,42.2142547 17.2535626,42.7312927 17.2535626,42.9748789 C17.2535626,43.5016213 18.996867,43.5016213 19.1941781,43.3252783 C19.2930931,43.236875 19.3879088,42.6895617 19.3380612,41.7140345 C19.3271002,41.4995246 19.2791391,41.1136743 19.1941781,40.5564836 C20.8213693,40.8125706 22.445575,40.8335159 24.0667953,40.6193196 C26.576389,40.2877511 28.4304979,39.4414557 29.00323,38.803455 C28.8056071,38.5613067 28.6628444,38.3832216 28.574942,38.2691996 C28.4942767,38.1645653 28.3639602,38.0107594 28.1839924,37.807782 C26.0215786,38.062056 24.2610358,38.189193 22.9023641,38.189193 C21.5436924,38.189193 19.7185682,38.0805804 17.4269916,37.8633552 Z" id="path-66"></path>
        <filter x="-20.0%" y="-44.5%" width="140.0%" height="188.9%" filterUnits="objectBoundingBox" id="filter-67">
            <feGaussianBlur stdDeviation="1.5" in="SourceAlpha" result="shadowBlurInner1"></feGaussianBlur>
            <feOffset dx="2" dy="0" in="shadowBlurInner1" result="shadowOffsetInner1"></feOffset>
            <feComposite in="shadowOffsetInner1" in2="SourceAlpha" operator="arithmetic" k2="-1" k3="1" result="shadowInnerInner1"></feComposite>
            <feColorMatrix values="0 0 0 0 0.817680027   0 0 0 0 0.283418974   0 0 0 0 0  0 0 0 0.625874126 0" type="matrix" in="shadowInnerInner1" result="shadowMatrixInner1"></feColorMatrix>
            <feGaussianBlur stdDeviation="1.5" in="SourceAlpha" result="shadowBlurInner2"></feGaussianBlur>
            <feOffset dx="-2" dy="0" in="shadowBlurInner2" result="shadowOffsetInner2"></feOffset>
            <feComposite in="shadowOffsetInner2" in2="SourceAlpha" operator="arithmetic" k2="-1" k3="1" result="shadowInnerInner2"></feComposite>
            <feColorMatrix values="0 0 0 0 0.883378623   0 0 0 0 0.306190997   0 0 0 0 0  0 0 0 0.733173077 0" type="matrix" in="shadowInnerInner2" result="shadowMatrixInner2"></feColorMatrix>
            <feMerge>
                <feMergeNode in="shadowMatrixInner1"></feMergeNode>
                <feMergeNode in="shadowMatrixInner2"></feMergeNode>
            </feMerge>
        </filter>
        <linearGradient x1="26.0416322%" y1="75.7725181%" x2="42.6220708%" y2="10.9499226%" id="linearGradient-68">
            <stop stop-color="#301911" offset="0%"></stop>
            <stop stop-color="#AF6F27" offset="100%"></stop>
        </linearGradient>
        <radialGradient cx="50%" cy="50%" fx="50%" fy="50%" r="233.620551%" gradientTransform="translate(0.500000,0.500000),scale(0.484375,1.000000),rotate(-0.522409),scale(1.000000,0.801691),translate(-0.500000,-0.500000)" id="radialGradient-69">
            <stop stop-color="#FFFFFF" offset="0%"></stop>
            <stop stop-color="#D8D8D8" offset="100%"></stop>
        </radialGradient>
        <path d="M29.7979705,50.7485173 L29.1172197,51.8062534 C29.5746244,52.3129412 30.1925411,52.4369363 30.97097,52.1782387 C31.5561242,51.9837727 32.0456903,51.2409155 32.8323984,50.581024 C33.0056299,50.4357171 33.3456442,50.2822963 33.852441,50.1207616 C33.4456582,49.9807784 33.105644,49.9807784 32.8323984,50.1207616 C32.0798994,50.5062652 31.6723304,51.0505393 31.230828,51.1189611 C30.5267619,51.2280737 30.0491428,51.1045924 29.7979705,50.7485173 Z" id="path-70"></path>
        <filter x="-73.9%" y="-152.6%" width="247.8%" height="405.2%" filterUnits="objectBoundingBox" id="filter-71">
            <feGaussianBlur stdDeviation="3" in="SourceAlpha" result="shadowBlurInner1"></feGaussianBlur>
            <feOffset dx="0" dy="1" in="shadowBlurInner1" result="shadowOffsetInner1"></feOffset>
            <feComposite in="shadowOffsetInner1" in2="SourceAlpha" operator="arithmetic" k2="-1" k3="1" result="shadowInnerInner1"></feComposite>
            <feColorMatrix values="0 0 0 0 0.629698822   0 0 0 0 0.629698822   0 0 0 0 0.629698822  0 0 0 0.5 0" type="matrix" in="shadowInnerInner1"></feColorMatrix>
        </filter>
    </defs>
    <g id="吉祥物" stroke="none" stroke-width="1" fill="none" fill-rule="evenodd">
        <g id="成功" transform="translate(37.000000, 38.000000)">
            <ellipse id="椭圆形" fill-opacity="0.6" fill="url(#radialGradient-1)" filter="url(#filter-2)" cx="74.8814433" cy="71.871134" rx="71.1185567" ry="71.871134"></ellipse>
            <g id="云" fill-rule="nonzero" filter="url(#filter-4)">
                <use fill="#FFFFFF" xlink:href="#path-3"></use>
                <use fill="black" fill-opacity="1" filter="url(#filter-5)" xlink:href="#path-3"></use>
            </g>
            <g id="云" fill-rule="nonzero" filter="url(#filter-7)">
                <use fill="#FFFFFF" xlink:href="#path-6"></use>
                <use fill="black" fill-opacity="1" filter="url(#filter-8)" xlink:href="#path-6"></use>
            </g>
            <ellipse id="椭圆形" fill="url(#linearGradient-9)" cx="73.7525773" cy="108.747423" rx="70.742268" ry="19.1907216"></ellipse>
            <path d="M136.539028,100.05762 C134.810201,94.0097631 80.6936495,85.9404113 85.748729,89.5956516 C90.8038086,93.2508919 70.742268,82.9354477 70.742268,89.5956516 L89.1804124,111.381443 L136.539028,100.05762 Z" id="阴影" fill="url(#linearGradient-10)"></path>
            <g id="树-copy-6" transform="translate(100.845361, 86.546392)">
                <rect id="矩形" fill="url(#linearGradient-11)" x="4.73048601" y="8.69226804" width="1.57682867" height="7.11185567"></rect>
                <polygon id="矩形-copy-5" fill="url(#linearGradient-12)" opacity="0.840634301" filter="url(#filter-13)" transform="translate(10.445284, 15.016383) rotate(91.000000) translate(-10.445284, -15.016383) " points="10.1722847 9.2526606 10.8960934 9.25257103 10.7182826 20.7801052 9.99447388 20.7801947"></polygon>
                <polygon id="路径-4" fill="#F3A96B" points="5.51890034 0 5.51890034 10.2726804 8.67255768 7.83260008"></polygon>
                <polygon id="路径-4-copy" fill="#FFCA4A" transform="translate(2.759450, 5.136340) scale(-1, 1) translate(-2.759450, -5.136340) " points="0 0 9.5653685e-14 10.2726804 5.51890034 7.85460839"></polygon>
            </g>
            <g id="树-copy-5" transform="translate(119.659794, 95.577320)">
                <rect id="矩形" fill="url(#linearGradient-14)" x="7.98188066" y="13.5934278" width="1.59637613" height="11.1945876"></rect>
                <polygon id="矩形-copy-5" fill="url(#linearGradient-15)" opacity="0.840634301" filter="url(#filter-16)" transform="translate(16.617497, 24.312239) rotate(91.000000) translate(-16.617497, -24.312239) " points="16.1783308 15.1427654 17.3502053 15.1422675 17.0566626 33.4817125 15.884788 33.4822104"></polygon>
                <polygon id="路径-4" fill="#F3A96B" points="8.78006873 0 8.78006873 15.992268 14.3673852 12.1936082"></polygon>
                <polygon id="路径-4-copy" fill="#FFCA4A" transform="translate(4.390034, 7.996134) scale(-1, 1) translate(-4.390034, -7.996134) " points="0 0 1.52176317e-13 15.992268 8.78006873 12.2278702"></polygon>
            </g>
            <g id="分组-4" transform="translate(0.000000, 37.628866)">
                <path d="M46.5920118,0.786199443 L82.9258351,0.0900041266 L82.9258351,0.0900041266 C87.3511648,-0.0300013755 90.6534017,-0.0300013755 92.8325459,0.0900041266 C93.199344,0.110203702 93.5399034,0.134110665 93.854224,0.161725014 C95.4033484,0.297832273 96.5916628,1.59512197 96.5916628,3.1502141 L96.5916628,69.8461928 C96.5916628,71.5030471 95.248517,72.8461928 93.5916628,72.8461928 C93.4611084,72.8461928 93.3306932,72.8376706 93.2012491,72.8206805 L87.3221208,72.0490208 L87.3221208,72.0490208 L46.3096211,67.3726993 C44.7940866,67.1998952 43.6494845,65.9173671 43.6494845,64.3920127 L43.6494845,3.78564887 C43.6494845,2.15119621 44.9578591,0.817511575 46.5920118,0.786199443 Z" id="矩形" fill="#CC7921"></path>
                <g id="矩形" fill-rule="nonzero">
                    <use fill="black" fill-opacity="1" filter="url(#filter-19)" xlink:href="#path-18"></use>
                    <use fill="url(#linearGradient-17)" xlink:href="#path-18"></use>
                </g>
                <g id="矩形">
                    <use fill="black" fill-opacity="1" filter="url(#filter-22)" xlink:href="#path-21"></use>
                    <use fill="url(#linearGradient-20)" fill-rule="evenodd" xlink:href="#path-21"></use>
                </g>
                <path d="M41.8461516,12.953688 L85.2585227,12.0755721 C86.3628663,12.0532342 87.2762221,12.9303731 87.2985601,14.0347167 C87.2988327,14.0481971 87.2989691,14.0616799 87.2989691,14.0751631 L87.2989691,24.3376331 C87.2989691,25.4422026 86.4035386,26.3376331 85.2989691,26.3376331 C85.2569536,26.3376331 85.2149485,26.3363092 85.1730164,26.3336632 L41.7606453,23.5942738 C40.7070763,23.5277919 39.8865979,22.6539082 39.8865979,21.5982437 L39.8865979,14.9532789 C39.8865979,13.8644729 40.7575682,12.9757071 41.8461516,12.953688 Z" id="矩形" fill="url(#linearGradient-23)"></path>
                <rect id="矩形" fill="url(#linearGradient-24)" x="41.4065559" y="14.2025475" width="37.628866" height="1.12886598"></rect>
                <circle id="椭圆形" fill="url(#linearGradient-25)" cx="82.7835052" cy="17.3092784" r="2.25773196"></circle>
                <rect id="矩形-copy-9" fill="url(#linearGradient-24)" x="41.4065559" y="17.9654341" width="37.628866" height="1.12886598"></rect>
                <polygon id="矩形-copy-10" fill="url(#linearGradient-26)" transform="translate(62.855010, 22.292754) rotate(2.000000) translate(-62.855010, -22.292754) " points="41.4065559 21.7283207 84.3034631 21.7283207 84.3034631 22.8571867 41.4065559 22.8571867"></polygon>
                <g id="路径" fill-rule="nonzero">
                    <use fill="black" fill-opacity="1" filter="url(#filter-29)" xlink:href="#path-28"></use>
                    <use fill="url(#linearGradient-27)" xlink:href="#path-28"></use>
                </g>
                <path d="M62.4479363,53.5112912 C62.4479363,53.5112912 70.3213682,38.3337263 79.3789937,32.3608247 C78.2632324,35.2231971 78.6676045,40.5819801 79.3789937,43.4388875 C74.9621652,44.4471691 65.8814185,55.7780743 62.936877,61.317041 C58.7673321,56.028042 53.8966166,52.6111812 50.4226804,50.741824 L55.1988092,46.1763084 L62.4479686,53.5112912 L62.4479363,53.5112912 Z" id="路径" fill="url(#linearGradient-30)" fill-rule="nonzero"></path>
                <g id="分组-3" transform="translate(0.000000, 26.340206)">
                    <ellipse id="椭圆形" fill="#E4C59F" filter="url(#filter-31)" cx="22.7512583" cy="56.4897095" rx="8.84154589" ry="2.25662887"></ellipse>
                    <path d="M10.2173035,7.27916632 C9.28593062,6.90946259 8.25418791,7.62816664 7.97669487,8.05628357 C7.15085789,9.32880381 5.44088087,12.5984636 0.395083335,12.0941877 C0.269808767,12.0819571 0.147250175,12.1361388 0.0718259811,12.2370959 C-0.00359821243,12.3380529 -0.0209434475,12.4711358 0.0260766404,12.5881119 C0.525711704,13.8199648 2.15376924,16.6408042 6.58111156,16.5720393 C6.73053206,16.5701419 6.86326163,16.4759966 6.91469361,16.3354289 C7.33167117,15.1908262 10.4726562,8.99533105 10.5634318,8.84597074 C11.125798,7.91727496 10.5634318,7.29765151 10.2195176,7.27916632" id="路径" fill="url(#radialGradient-32)"></path>
                    <path d="M44.5476574,7.27916632 C43.6162845,6.90946259 42.5845418,7.62816664 42.3070488,8.05628357 C41.4812118,9.32880381 39.7712348,12.5984636 34.7254373,12.0941877 C34.6001627,12.0819571 34.4776041,12.1361388 34.4021799,12.2370959 C34.3267557,12.3380529 34.3094105,12.4711358 34.3564306,12.5881119 C34.8560656,13.8199648 36.4841232,16.6408042 40.9114655,16.5720393 C41.060886,16.5701419 41.1936155,16.4759966 41.2450475,16.3354289 C41.6620251,15.1908262 44.8030101,8.99533105 44.8937857,8.84597074 C45.4561519,7.91727496 44.8937857,7.29765151 44.5498715,7.27916632" id="路径" fill="url(#radialGradient-32)" transform="translate(39.731466, 11.875047) scale(-1, 1) translate(-39.731466, -11.875047) "></path>
                    <path d="M14.5384973,40.1339502 C12.7713132,42.156924 11.0587312,46.6170749 12.9794439,48.1667664 C14.5147293,49.40613 15.4359005,45.1258134 17.2030846,43.1028396 C18.9702688,41.0798658 21.2950377,38.4680481 20.3507409,37.6221127 C19.406444,36.7761772 16.3063238,38.1109764 14.5384973,40.1339502 Z" id="路径" fill="url(#radialGradient-33)"></path>
                    <path d="M12.1738538,45.3545408 C12.0374012,46.5223498 12.2382182,47.5633083 12.9809836,48.166175 C13.8704999,48.8854302 14.5540501,47.7509685 15.3154812,46.2699566" id="路径" fill="url(#linearGradient-34)" fill-rule="nonzero"></path>
                    <path d="M26.6958485,55.1314843 L25.7874483,54.8313395 C26.8219254,54.1967662 27.8176095,53.2969787 28.6833375,52.2568219 C30.389578,50.2075576 31.5928041,47.6155746 31.5928041,45.4453468 C31.5928041,41.1048912 26.9577005,34.6263052 22.9245332,34.6263052 C18.8913658,34.6263052 13.9097124,41.1048912 13.9097124,45.4453468 C13.9097124,47.6220433 15.1187574,50.2230823 16.8327565,52.2755809 C17.6978379,53.3105629 18.6915824,54.2064691 19.7234733,54.8371613 L18.8325299,55.1314843 C18.8325299,55.1314843 16.4959049,55.7608827 16.8553857,56.4801952 C17.2148665,57.1995076 22.4512599,57.1387024 22.5766903,56.8094488 C22.7021206,56.4801952 22.7021206,56.1148377 22.7512583,56.1148377 C22.8003959,56.1148377 22.8003959,56.4801952 22.9510416,56.8094488 C23.1016873,57.1387024 28.3128654,57.197567 28.6723462,56.4801952 C29.0318269,55.7628233 26.6958485,55.1314843 26.6958485,55.1314843 Z" id="路径" fill="url(#radialGradient-35)"></path>
                    <path d="M22.7142643,49.2758959 C26.3928041,49.2758959 27.7342288,46.7109006 27.5865828,43.4379791 C27.4389368,40.1650577 25.3108243,37.5118307 22.7142643,37.5118307 C20.1177044,37.5118307 17.9895919,40.1650577 17.8419459,43.4379791 C17.6942999,46.7109006 19.0357246,49.2758959 22.7142643,49.2758959 Z" id="肚子" fill="url(#radialGradient-36)"></path>
                    <g id="face" transform="translate(3.403440, 4.217306)">
                        <mask id="mask-39" fill="white">
                            <use xlink:href="#path-38"></use>
                        </mask>
                        <g id="Mask">
                            <use fill="url(#radialGradient-37)" fill-rule="evenodd" xlink:href="#path-38"></use>
                            <use fill="black" fill-opacity="1" filter="url(#filter-40)" xlink:href="#path-38"></use>
                        </g>
                        <path d="M11.230049,0.923658237 C18.1069518,7.4048861 20.5453201,13.3556138 18.5451538,18.7758414 C17.036044,22.865361 11.4214123,25.8760055 4.89080778,25.8760055 C2.6116086,25.8760055 0.710050627,25.5665855 -0.813866149,24.9477455 C-0.624911777,23.8277641 -0.430868703,23.0180548 -0.231736927,22.5186177 C1.29306655,18.6942988 0.999449502,15.2151467 1.47200901,13.0025802 C1.876846,11.1070968 2.1592334,9.86586117 2.95951327,7.84713757 C3.13619388,7.40145683 3.77995872,6.43638867 4.89080778,4.9519331 C6.03709082,3.52249326 7.10801519,2.60482636 8.1035809,2.19893241 C9.09914661,1.79303846 10.1413026,1.36794707 11.230049,0.923658237 Z" id="路径-2" fill="url(#radialGradient-41)" mask="url(#mask-39)"></path>
                        <g id="椭圆形" mask="url(#mask-39)">
                            <use fill="url(#radialGradient-42)" fill-rule="evenodd" xlink:href="#path-43"></use>
                            <use fill="black" fill-opacity="1" filter="url(#filter-44)" xlink:href="#path-43"></use>
                        </g>
                        <circle id="椭圆形" fill="url(#linearGradient-45)" mask="url(#mask-39)" cx="0.924847896" cy="24.3789906" r="3.58840984"></circle>
                        <circle id="椭圆形" fill="url(#linearGradient-46)" mask="url(#mask-39)" cx="37.7707881" cy="24.3789906" r="3.58840984"></circle>
                    </g>
                    <path d="M31.0646458,33.8684776 C30.1116659,35.0134827 28.6940127,38.1225422 28.3692504,40.2529461 C29.0520492,39.3169913 29.7688058,38.8728508 30.5195201,38.9205245 C30.9953275,38.9507404 31.3649629,39.2097356 31.6284264,39.6975101 C32.1034397,38.6154968 32.4474945,37.9257318 33.0764515,36.8363465 C33.2290452,36.5720464 34.5677096,36.9857141 37.0924448,38.0773495 C37.0052575,37.6063976 36.947303,37.2351023 36.9185815,36.9634636 C36.8897758,36.6910291 36.8696224,36.0968036 36.8581213,35.180787 C35.9105726,34.3358155 32.4115276,32.2501994 31.0646458,33.8684776 Z" id="路径" fill="url(#radialGradient-47)" transform="translate(32.730848, 36.761596) rotate(150.000000) translate(-32.730848, -36.761596) "></path>
                    <path d="M31.0909978,32.254304 C31.0909978,33.2177617 31.8640478,33.9987985 32.8176533,33.9987985 C33.7712588,33.9987985 34.5608929,33.2745454 34.7515559,32.254304 C34.8617922,31.664427 35.0407882,29.1156016 34.4350967,29.1156016 C34.1141403,29.1156016 33.8761047,29.5757433 33.8168337,29.9734637 C33.6954787,29.8852147 33.5372327,29.6239331 33.2462519,29.7121821 C32.8097807,29.8445555 32.9265613,30.6956898 32.8107723,30.6956898 C32.2553347,30.6956898 31.7680333,30.7747844 31.4521867,31.1864441 C31.2113941,31.5118939 31.1351872,31.7208954 31.2235659,31.8134486 C31.4860677,31.9872984 31.881515,31.7089439 32.1304023,31.6655491 C32.1921778,31.6547782 32.4368821,31.6820249 32.517338,31.8134486 C32.6460446,32.023689 32.6470952,32.2468511 32.4519373,32.4444061 C32.3544903,32.54305 32.1525073,32.5861983 31.9641531,32.532371 C31.8091708,32.4620864 31.6772476,32.3083504 31.5683835,32.0711631 C31.4210509,31.9157027 31.3061117,31.8565152 31.2235659,31.8936005 C31.14102,31.9306858 31.0968307,32.0509203 31.0909978,32.254304 Z" id="路径" fill="url(#linearGradient-48)" fill-rule="nonzero" transform="translate(32.977688, 31.557200) rotate(-24.000000) translate(-32.977688, -31.557200) "></path>
                    <path d="M35.5213692,8.12679394 C35.5083011,8.24221944 35.4148358,8.33242491 35.2981177,8.34225899 C34.4877144,8.41088313 31.4641437,8.44999151 30.9298283,5.279261 C30.9185414,5.20713246 30.9403799,5.13377879 30.989362,5.07929173 C31.2349388,4.80553306 31.9419021,3.69500259 31.5207008,0.27338812 C31.5092593,0.181640864 31.5512001,0.0913818157 31.6289679,0.0403911116 C31.7067357,-0.0105995924 31.8069166,-0.0135268259 31.8875776,0.0328346765 C33.0373233,0.691036123 36.0750332,2.94013703 35.5213692,8.12679394 Z" id="路径" fill="url(#linearGradient-49)" fill-rule="nonzero"></path>
                    <path d="M9.83298288,8.12108611 C9.84548719,8.23983683 9.94151911,8.33290468 10.0615145,8.34256397 C10.8803573,8.4112221 13.8899769,8.44370552 14.4244579,5.28173998 C14.4364542,5.2074669 14.4140271,5.13179003 14.3634169,5.07576557 C14.1162753,4.79744173 13.4165368,3.68488463 13.8326579,0.283722997 C13.8455524,0.188909933 13.8028159,0.09510199 13.7225499,0.0420329391 C13.642284,-0.0110361118 13.5385343,-0.0140797212 13.4552458,0.0341912777 C12.296211,0.700839628 9.28212498,2.95326944 9.83298288,8.12108611 Z" id="路径" fill="url(#linearGradient-50)" fill-rule="nonzero"></path>
                    <g id="eye" transform="translate(8.286637, 15.389469)" fill-rule="nonzero">
                        <path d="M11.1782575,9.28305462 C9.61119519,12.0568584 5.54187345,12.0568584 3.58710593,11.1031553 C0.425509473,9.56065753 -0.735657041,6.19990528 0.462269166,3.42734348 C1.66019537,0.654781683 5.12628821,-0.953111822 8.28926801,0.61543021 C11.2302843,2.07447025 12.8215272,6.37607271 11.1782575,9.28305462 Z" id="路径" stroke="#461D10" stroke-width="0.5" fill="#FFFFFF"></path>
                        <circle id="椭圆形" stroke="#2C1F1B" stroke-width="0.5" fill="url(#radialGradient-51)" cx="6.27286423" cy="6.19776204" r="4.90539324"></circle>
                        <circle id="椭圆形" fill="#301911" cx="6.30541887" cy="6.23031668" r="4.05009391"></circle>
                        <circle id="椭圆形" fill="#000000" cx="6.28766179" cy="6.2125596" r="1.96067754"></circle>
                        <ellipse id="椭圆形" fill="#FFFFFF" transform="translate(4.191326, 4.255651) rotate(-52.780000) translate(-4.191326, -4.255651) " cx="4.19132613" cy="4.2556511" rx="1.57594082" ry="1.23411703"></ellipse>
                        <circle id="椭圆形" fill="#FFFFFF" transform="translate(2.681837, 5.831900) rotate(-69.520000) translate(-2.681837, -5.831900) " cx="2.68183688" cy="5.83189976" r="1"></circle>
                    </g>
                    <g id="眯眼">
                        <use fill="black" fill-opacity="1" filter="url(#filter-54)" xlink:href="#path-53"></use>
                        <use fill="url(#linearGradient-52)" fill-rule="evenodd" xlink:href="#path-53"></use>
                    </g>
                    <path d="M20.3227576,30.1274307 C20.4490541,30.0040521 20.9654512,30.7149931 22.7142643,30.7149931 C24.4630775,30.7149931 24.9429,30.0309069 25.0936264,30.1274307 C25.2443528,30.2239544 25.3037522,31.6362756 25.0936264,32.4192587 C24.8835006,33.2022418 24.1895548,34.0958303 22.7142643,34.0958303 C21.2389739,34.0958303 20.5232329,33.1292244 20.3227576,32.4192587 C20.1222824,31.709293 20.1964611,30.2508092 20.3227576,30.1274307 Z" id="笑" stroke="#301911" stroke-width="0.5" fill="url(#linearGradient-55)" stroke-linecap="round"></path>
                    <g id="91" filter="url(#filter-56)" transform="translate(19.384812, 5.623075)">
                        <g id="Shape">
                            <use fill="#FD5902" fill-rule="evenodd" xlink:href="#path-57"></use>
                            <use fill="black" fill-opacity="1" filter="url(#filter-58)" xlink:href="#path-57"></use>
                        </g>
                        <mask id="mask-60" fill="white">
                            <use xlink:href="#path-59"></use>
                        </mask>
                        <g id="Mask">
                            <use fill="#FD5902" fill-rule="evenodd" xlink:href="#path-59"></use>
                            <use fill="black" fill-opacity="1" filter="url(#filter-61)" xlink:href="#path-59"></use>
                        </g>
                    </g>
                    <polygon id="路径-4" fill="#606060" filter="url(#filter-62)" points="22.7791455 52.9752875 22.7142643 56.0087886 22.8156532 56.0087886"></polygon>
                    <path d="M20.2726659,52.0874335 C20.9937525,52.7286614 21.8322812,53.0492753 22.7882522,53.0492753 C23.7442231,53.0492753 24.5827519,52.7286614 25.3038384,52.0874335" id="路径-5" stroke="url(#linearGradient-63)" filter="url(#filter-64)"></path>
                    <g id="路径-6">
                        <use fill="url(#linearGradient-65)" fill-rule="evenodd" xlink:href="#path-66"></use>
                        <use fill="black" fill-opacity="1" filter="url(#filter-67)" xlink:href="#path-66"></use>
                    </g>
                    <path d="M33.7873965,50.971248 C34.1264385,51.0110531 34.6192452,50.8608951 34.8180253,50.6146752 C34.9553499,50.4445774 35.1300743,50.2917336 35.307352,50.1843917 C35.4819502,50.0786722 35.6382077,50.0786722 35.7761246,50.1843917 C35.7761246,49.5180515 34.9443071,48.9059568 34.0471731,48.9059568 C33.1500391,48.9059568 32.8905992,49.6486237 32.8905992,50.0424329 C32.8905992,50.4362422 33.2056503,50.9029483 33.7873965,50.971248 Z" id="椭圆形" fill="url(#linearGradient-68)" fill-rule="nonzero"></path>
                    <g id="路径-7">
                        <use fill="url(#radialGradient-69)" fill-rule="evenodd" xlink:href="#path-70"></use>
                        <use fill="black" fill-opacity="1" filter="url(#filter-71)" xlink:href="#path-70"></use>
                    </g>
                </g>
            </g>
        </g>
    </g>
</svg>